<svg xmlns="http://www.w3.org/2000/svg"><symbol id="sprite-check" viewBox="-21 -21 682.667 682.667"><title>check</title><path d="M322.82 387.934L602.77 80.66l36.957 33.672-314.34 345.023-171.364-162.902 34.454-36.238zm297.493-178.868l-38.989 42.93C586.984 273.73 590 296.52 590 320c0 148.875-121.125 270-270 270S50 468.875 50 320 171.125 50 320 50c68.969 0 131.969 26.008 179.746 68.71l33.707-37.112C474.691 28.859 399.566 0 320 0 234.527 0 154.164 33.285 93.727 93.727 33.285 154.164 0 234.527 0 320s33.285 165.836 93.727 226.273C154.164 606.715 234.527 640 320 640s165.836-33.285 226.273-93.727C606.715 485.836 640 405.473 640 320c0-38.469-6.762-75.89-19.688-110.934zm0 0"/></symbol><symbol id="sprite-circle-with-cross" viewBox="0 0 98.494 102.274"><title>C:\Users\Packard Bell\Documents\projects\forkify\app\img\svg</title><g transform="translate(-50.16 -62.167)" fill="none" stroke="#000" stroke-width="4"><ellipse cx="99.408" cy="113.304" rx="47.247" ry="49.137"/><path d="M83.104 97l32.607 32.607m0-32.607l-32.607 32.607"/></g></symbol><symbol id="sprite-circle-with-minus" viewBox="0 0 512 512"><title>circle-with-minus</title><path d="M256 512c-68.379 0-132.668-26.629-181.02-74.98C26.63 388.668 0 324.379 0 256S26.629 123.332 74.98 74.98C123.332 26.63 187.621 0 256 0s132.668 26.629 181.02 74.98C485.37 123.332 512 187.621 512 256s-26.629 132.668-74.98 181.02C388.668 485.37 324.379 512 256 512zm0-472C136.898 40 40 136.898 40 256s96.898 216 216 216 216-96.898 216-216S375.102 40 256 40zm110 195.98H146v40h220zm0 0"/></symbol><symbol id="sprite-circle-with-plus" viewBox="0 0 512 512"><title>circle-with-plus</title><path d="M437.02 74.98C388.668 26.63 324.379 0 256 0S123.332 26.629 74.98 74.98C26.63 123.332 0 187.621 0 256s26.629 132.668 74.98 181.02C123.332 485.37 187.621 512 256 512s132.668-26.629 181.02-74.98C485.37 388.668 512 324.379 512 256s-26.629-132.668-74.98-181.02zM256 472c-119.102 0-216-96.898-216-216S136.898 40 256 40s216 96.898 216 216-96.898 216-216 216zm20-236.02h90v40h-90v90h-40v-90h-90v-40h90v-90h40zm0 0"/></symbol><symbol id="sprite-delete" viewBox="0 0 512 512"><title>delete</title><path d="M512 28.308L483.692 0 256 227.692 28.308 0 0 28.308 227.692 256 0 483.692 28.308 512 256 284.308 483.692 512 512 483.692 284.308 256z"/></symbol><symbol id="sprite-heart-outlined" viewBox="0 0 512 512"><title>heart-outlined</title><path d="M471.67 82.457C446.515 56.984 411.829 42.955 374 42.955c-52.941 0-93.74 25.485-118 73.711-24.26-48.226-65.059-73.711-118-73.711-37.829 0-72.515 14.029-97.67 39.503C13.946 109.177 0 145.752 0 188.229c0 50.951 32.376 107.006 96.228 166.607 57.894 54.039 121.343 91.964 133.475 99.018a7806.25 7806.25 0 0 0 16.306 9.427l9.994 5.764 9.993-5.767s11.242-6.487 16.294-9.425c12.132-7.055 75.584-44.983 133.477-99.018C479.622 295.235 512 239.18 512 188.229c0-42.477-13.946-79.052-40.33-105.772zm-83.196 243.137c-54.759 51.11-114.809 87.004-126.291 93.68-1.617.94-3.872 2.246-6.186 3.585a2809.167 2809.167 0 0 1-6.188-3.585c-11.481-6.676-71.527-42.567-126.287-93.68C68.882 274.592 40 227.092 40 188.229c0-61.984 40.299-105.274 98-105.274 37.536 0 64.303 16.625 81.828 50.826 14.064 27.441 16.196 55.891 16.216 56.175l.768-.052h39.146c.018-.274 2.152-28.119 15.719-55.149 17.251-34.372 44.949-51.8 82.323-51.8 57.701 0 98 43.29 98 105.274 0 38.863-28.883 86.363-83.526 137.365z"/></symbol><symbol id="sprite-heart" viewBox="0 0 1000 1000"><title>heart</title><path d="M10 434c0 75.2 27.1 139.5 81.3 192.8 54.2 53.4 118.1 80 191.6 80 92.2 0 166.2-38.4 222-115.2 25.9 35.6 57.6 63.7 95.2 84.3 37.6 20.6 76.6 30.9 117 30.9 76 0 140.5-26.5 193.5-79.4 53-53 79.4-117.4 79.4-193.5 0-104.3-33.6-190-100.7-257.1C865 151.7 824 117.4 766.2 73.7 708.4 30 654.8-9 605.5-43.3c-49.3-34.4-74.4-52-75.2-52.8-14.6-7.3-24.7-10.9-30.3-10.9-5.7 0-15.8 3.6-30.3 10.9-1.6 1.6-26.9 19.6-75.8 54S291.6 31.3 233.8 75C176 118.7 135 152.6 110.7 176.9 43.6 244 10 329.7 10 434z" transform="matrix(1 0 0 -1 0 800)"/></symbol><symbol id="sprite-magnifying-glass" viewBox="0 0 512 512"><title>magnifying-glass</title><path d="M302.058 0C186.296 0 92.116 94.18 92.116 209.942c0 50.697 18.064 97.253 48.092 133.574L0 483.724 28.276 512l140.208-140.208c36.321 30.028 82.877 48.092 133.574 48.092C417.82 419.884 512 325.704 512 209.942S417.821 0 302.058 0zm0 379.895c-93.712 0-169.953-76.241-169.953-169.953S208.346 39.989 302.058 39.989s169.953 76.241 169.953 169.953-76.241 169.953-169.953 169.953z"/></symbol><symbol id="sprite-man" viewBox="0 0 512 512"><title>man</title><path d="M437.02 330.98c-27.883-27.882-61.071-48.523-97.281-61.018C378.521 243.251 404 198.548 404 148 404 66.393 337.607 0 256 0S108 66.393 108 148c0 50.548 25.479 95.251 64.262 121.962-36.21 12.495-69.398 33.136-97.281 61.018C26.629 379.333 0 443.62 0 512h40c0-119.103 96.897-216 216-216s216 96.897 216 216h40c0-68.38-26.629-132.667-74.98-181.02zM256 256c-59.551 0-108-48.448-108-108S196.449 40 256 40s108 48.448 108 108-48.449 108-108 108z"/></symbol><symbol id="sprite-shopping-cart" viewBox="0 0 512 512"><title>shopping-cart</title><path d="M418.783 334.787c15.559-11.689 26.828-27.669 32.601-46.23L512 109.102H122.337l-4.299-47.67a66.998 66.998 0 0 0-21.543-43.627A67.002 67.002 0 0 0 51.143.178H0V40.15h51.143c14.189 0 25.83 10.659 27.08 24.834l31.281 346.847.017.185c3.049 30.622 26.04 54.542 55.415 59.526 7.833 23.379 29.927 40.279 55.909 40.279 25.497 0 47.26-16.272 55.465-38.973h46.959c8.205 22.701 29.968 38.973 55.465 38.973 32.51 0 58.959-26.45 58.959-58.959s-26.449-58.959-58.959-58.959c-25.497 0-47.26 16.272-55.465 38.973H276.31c-8.205-22.701-29.968-38.973-55.465-38.973-24.644 0-45.792 15.203-54.59 36.718-9.159-3.636-15.886-12.105-16.95-22.484l-4.979-55.206h220.418c19.55.001 38.236-6.273 54.039-18.144zm-40.047 99.089c10.47 0 18.987 8.517 18.987 18.987s-8.517 18.987-18.987 18.987c-10.47 0-18.987-8.517-18.987-18.987s8.517-18.987 18.987-18.987zm-157.89 0c10.47 0 18.987 8.517 18.987 18.987s-8.517 18.987-18.987 18.987-18.987-8.517-18.987-18.987 8.517-18.987 18.987-18.987zm-80.124-120.915v-.001l-14.781-163.886h330.366l-42.875 126.932-.167.519c-6.6 21.453-26.552 36.436-48.519 36.436H140.722z"/></symbol><symbol id="sprite-stopwatch" viewBox="0 0 512 512"><title>stopwatch</title><path d="M384.018 429.101l23.825 32.034a257.628 257.628 0 0 0 32.39-28.626l-28.86-27.584a217.548 217.548 0 0 1-27.355 24.176zm-64.791 32.91l11.784 38.143a254.7 254.7 0 0 0 40.083-16.239l-18.084-35.591a214.755 214.755 0 0 1-33.783 13.687zm115.057-85.506l33.081 22.346a255.941 255.941 0 0 0 21.091-37.768l-36.382-16.435a215.914 215.914 0 0 1-17.79 31.857zM236.538 236.039H124.756v39.922H276.46V76.351h-39.922z"/><path d="M472.078 46.409v73.931c-18.771-29.961-43.63-55.786-73.296-75.913C356.423 15.689 306.878.499 255.501.499c-68.247 0-132.408 26.577-180.667 74.834C26.577 123.592 0 187.753 0 256s26.577 132.408 74.834 180.667c48.259 48.257 112.42 74.834 180.667 74.834 11.111 0 22.295-.722 33.241-2.145l-5.146-39.589a218.7 218.7 0 0 1-28.094 1.812c-118.871 0-215.579-96.708-215.579-215.579S136.631 40.421 255.502 40.421c77.157 0 147.175 40.696 185.604 105.793h-68.833v39.922H512V46.409h-39.922zm-1.757 227.556c-.178 2.129-.39 4.248-.627 6.36l.019.001a215.515 215.515 0 0 1-5.511 29.925l38.646 10.013a255.605 255.605 0 0 0 7.251-42.634l-.029-.002c.106-1.22.212-2.439.297-3.663h-40.046z"/></symbol><symbol id="sprite-triangle-left" viewBox="0 0 512 512"><title>triangle-left</title><path d="M101.682 256l308.636 256V0L101.682 256zm268.725 171.043L164.196 256 370.407 84.957v342.086z"/></symbol><symbol id="sprite-triangle-right" viewBox="0 0 512 512"><title>triangle-right</title><path d="M101.682 0v512l308.636-256L101.682 0zm39.911 84.957L347.804 256 141.593 427.043V84.957z"/></symbol></svg>