<?xml version="1.0" encoding="utf-8"?>
<!-- Svg Vector Icons : http://www.onlinewebfonts.com/icon -->
<!DOCTYPE svg PUBLIC "-//W3C//DTD SVG 1.1//EN" "http://www.w3.org/Graphics/SVG/1.1/DTD/svg11.dtd">
<svg version="1.1" xmlns="http://www.w3.org/2000/svg" xmlns:xlink="http://www.w3.org/1999/xlink" x="0px" y="0px" viewBox="0 0 1000 1000" enable-background="new 0 0 1000 1000" xml:space="preserve">
<metadata> Svg Vector Icons : http://www.onlinewebfonts.com/icon </metadata>
<g><g transform="matrix(1 0 0 -1 0 800)"><path d="M10,434c0,75.2,27.1,139.5,81.3,192.8c54.2,53.4,118.1,80,191.6,80c92.2,0,166.2-38.4,222-115.2c25.9,35.6,57.6,63.7,95.2,84.3c37.6,20.6,76.6,30.9,117,30.9c76,0,140.5-26.5,193.5-79.4c53-53,79.4-117.4,79.4-193.5c0-104.3-33.6-190-100.7-257.1c-24.3-25.1-65.3-59.4-123.1-103.1c-57.8-43.7-111.4-82.7-160.7-117c-49.3-34.4-74.4-52-75.2-52.8c-14.6-7.3-24.7-10.9-30.3-10.9c-5.7,0-15.8,3.6-30.3,10.9c-1.6,1.6-26.9,19.6-75.8,54C345-7.7,291.6,31.3,233.8,75c-57.8,43.7-98.8,77.6-123.1,101.9C43.6,244,10,329.7,10,434z"/></g></g>
</svg>